<svg xmlns="http://www.w3.org/2000/svg" id="Layer_2" viewBox="0 0 366.11 78.97"><defs><style>.cls-3{fill:#a82e46}.cls-4{fill:#af9a58}.cls-5{fill:#6d6e71}</style></defs><g id="Layer_1-2"><path d="M110.62 22.08v-1.13c.64-.02 1.16-.08 1.54-.17.39-.09.69-.25.91-.48.22-.23.36-.55.44-.96.08-.41.11-.95.11-1.61V4.64c0-.66-.03-1.19-.09-1.6-.06-.41-.17-.73-.35-.96-.18-.24-.42-.4-.74-.48-.31-.09-.72-.15-1.23-.18V.28h9.09c2.85 0 5.04.46 6.58 1.37 1.54.92 2.31 2.22 2.31 3.92 0 2.25-1.61 3.83-4.84 4.76v.11c1.04 0 1.98.15 2.82.44s1.55.7 2.14 1.23c.58.53 1.04 1.15 1.36 1.87.32.72.48 1.5.48 2.35 0 .96-.23 1.8-.69 2.52s-1.13 1.32-2 1.81c-1.68.94-3.99 1.42-6.94 1.42h-10.9Zm8.83-12.31c.85 0 1.59-.08 2.21-.24.62-.16 1.15-.39 1.59-.69.91-.62 1.36-1.59 1.36-2.92s-.34-2.37-1.02-2.99-1.77-.92-3.28-.92h-2.01c-.34 0-.51.16-.51.48v7.27h1.67Zm2.26 10.59c3.04 0 4.56-1.37 4.56-4.1 0-1.68-.55-2.91-1.64-3.68-.57-.4-1.3-.68-2.19-.85-.9-.17-2-.25-3.3-.25h-1.36v5.66c0 1.17.3 2 .91 2.49.6.49 1.61.74 3.03.74ZM153.9 5.75c0 1.57-.45 2.88-1.36 3.93-.91 1.06-2.35 1.77-4.33 2.12l6.57 7.53c.45.53.99.93 1.61 1.2s1.25.41 1.9.41v1.13h-6.71l-7.02-8.61c-.47-.57-.88-.95-1.23-1.15-.35-.2-.68-.3-.98-.3v5.55c0 .7.05 1.27.14 1.71.09.44.28.79.57 1.03.28.25.69.41 1.23.5.54.09 1.26.13 2.17.13v1.13h-11.24v-1.13c.62 0 1.13-.04 1.51-.13s.69-.25.91-.48c.22-.24.36-.57.44-.99.08-.42.11-.97.11-1.63V4.64c0-.66-.03-1.19-.09-1.6-.06-.41-.18-.73-.37-.96-.19-.24-.46-.4-.81-.48-.35-.09-.82-.15-1.4-.18V.28h9.79c2.74 0 4.85.48 6.34 1.44 1.49.96 2.24 2.3 2.24 4.02Zm-11.55 4.59h1.84c1.77 0 3.1-.34 3.98-1.03.88-.69 1.32-1.83 1.32-3.41 0-1.21-.37-2.18-1.1-2.92-.74-.74-1.75-1.1-3.06-1.1h-2.46c-.34 0-.51.16-.51.48v7.98ZM172.1 0c1.7 0 3.28.29 4.76.88 1.47.58 2.75 1.39 3.84 2.41 1.08 1.02 1.94 2.22 2.56 3.59.62 1.38.93 2.87.93 4.47s-.32 2.96-.95 4.3c-.63 1.34-1.49 2.51-2.58 3.5-1.09.99-2.36 1.77-3.84 2.35-1.47.58-3.05.86-4.73.86s-3.26-.29-4.73-.86c-1.47-.58-2.76-1.36-3.85-2.35-1.09-.99-1.95-2.16-2.58-3.5-.62-1.34-.93-2.77-.93-4.3s.31-3.09.93-4.47c.62-1.38 1.48-2.58 2.56-3.59 1.08-1.02 2.36-1.82 3.84-2.41C168.8.3 170.39 0 172.09 0Zm0 20.52c1.09 0 2.08-.21 2.97-.64.89-.42 1.64-1.03 2.26-1.81.62-.78 1.1-1.74 1.43-2.86.33-1.12.5-2.38.5-3.78 0-1.47-.17-2.8-.5-3.98-.33-1.18-.81-2.19-1.43-3.03a6.282 6.282 0 0 0-2.26-1.92c-.89-.44-1.88-.67-2.97-.67s-2.11.22-2.99.67c-.88.44-1.63 1.09-2.25 1.92-.62.84-1.1 1.85-1.43 3.03-.33 1.18-.5 2.5-.5 3.98 0 1.4.17 2.66.5 3.78.33 1.12.81 2.08 1.43 2.86a6.35 6.35 0 0 0 2.25 1.81c.88.42 1.87.64 2.99.64ZM200.78 0c1.7 0 3.28.29 4.76.88 1.47.58 2.75 1.39 3.84 2.41 1.08 1.02 1.94 2.22 2.56 3.59.62 1.38.93 2.87.93 4.47s-.32 2.96-.95 4.3c-.63 1.34-1.49 2.51-2.58 3.5-1.09.99-2.36 1.77-3.84 2.35-1.47.58-3.05.86-4.73.86s-3.26-.29-4.73-.86c-1.47-.58-2.76-1.36-3.85-2.35-1.09-.99-1.95-2.16-2.58-3.5-.62-1.34-.93-2.77-.93-4.3s.31-3.09.93-4.47 1.48-2.58 2.56-3.59c1.08-1.02 2.36-1.82 3.84-2.41 1.47-.58 3.06-.88 4.76-.88Zm0 20.52c1.09 0 2.08-.21 2.97-.64.89-.42 1.64-1.03 2.26-1.81.62-.78 1.1-1.74 1.43-2.86.33-1.12.5-2.38.5-3.78 0-1.47-.17-2.8-.5-3.98-.33-1.18-.81-2.19-1.43-3.03a6.282 6.282 0 0 0-2.26-1.92c-.89-.44-1.88-.67-2.97-.67s-2.11.22-2.99.67c-.88.44-1.63 1.09-2.25 1.92-.62.84-1.1 1.85-1.43 3.03-.33 1.18-.5 2.5-.5 3.98 0 1.4.17 2.66.5 3.78.33 1.12.81 2.08 1.43 2.86a6.35 6.35 0 0 0 2.25 1.81c.88.42 1.87.64 2.99.64ZM223.88 17.52c0 .72.03 1.29.1 1.73s.19.77.38 1.02.46.42.81.51c.35.09.82.15 1.4.17v1.13h-9.82v-1.13c.62-.02 1.13-.08 1.53-.17.4-.09.7-.25.91-.48.21-.23.35-.55.42-.96.08-.41.11-.95.11-1.61V4.64c0-.64-.03-1.17-.1-1.59-.07-.41-.19-.74-.38-.96-.19-.23-.46-.39-.81-.48-.35-.09-.81-.16-1.37-.2V.28h9.77v1.14c-.64.02-1.16.08-1.54.17s-.68.26-.89.51c-.21.25-.34.59-.41 1.02-.07.43-.1 1.01-.1 1.73v6.28l7.33-7.87c.43-.47.65-.87.65-1.19 0-.21-.14-.37-.41-.48-.27-.11-.78-.17-1.51-.17V.28h7.73v1.11c-.42.02-.78.06-1.09.11s-.62.18-.93.37c-.31.19-.66.46-1.05.81-.39.35-.86.82-1.43 1.4l-5.04 5.26 8.32 10.13c.4.49.83.85 1.32 1.08.48.23 1.1.36 1.85.4v1.13h-10.47v-1.13c.77-.02 1.33-.08 1.67-.2s.51-.3.51-.57c0-.09-.01-.18-.04-.27-.03-.09-.08-.19-.14-.31-.07-.12-.17-.27-.3-.45-.13-.18-.31-.4-.54-.67l-5.01-6.17-1.41 1.47v3.74ZM263.79 17.52c0 .72.03 1.3.1 1.74.07.44.21.78.42 1.02.22.24.52.4.91.5.39.09.9.15 1.54.17v1.13h-10.39v-1.13c.7-.02 1.26-.08 1.68-.17.42-.09.75-.25.99-.48.24-.23.39-.55.47-.96.08-.41.11-.95.11-1.61v-5.92h-10.5v5.72c0 .72.04 1.3.11 1.74.08.44.23.78.45 1.02.23.24.55.4.98.5s.99.15 1.68.17v1.13h-10.36v-1.13c.64-.02 1.16-.08 1.54-.17s.68-.25.89-.48c.21-.23.35-.55.42-.96.08-.41.11-.95.11-1.61V4.64c0-.66-.03-1.19-.1-1.6-.07-.41-.19-.73-.38-.96-.19-.24-.46-.4-.81-.48-.35-.09-.81-.15-1.37-.18V.28h9.77v1.14c-.64.02-1.16.08-1.54.17s-.68.26-.89.51c-.21.25-.34.59-.41 1.02-.07.43-.1 1.01-.1 1.73v5.21h10.5V4.64c0-.66-.04-1.19-.11-1.6-.08-.41-.22-.73-.42-.96-.21-.24-.51-.4-.89-.48-.39-.09-.9-.15-1.54-.18V.28h9.79v1.14c-.57.02-1.02.08-1.37.17-.35.09-.62.26-.81.51-.19.25-.32.59-.38 1.02-.07.43-.1 1.01-.1 1.73v12.68ZM282.75 0c1.7 0 3.28.29 4.76.88 1.47.58 2.75 1.39 3.84 2.41 1.08 1.02 1.94 2.22 2.56 3.59.62 1.38.93 2.87.93 4.47s-.32 2.96-.95 4.3c-.63 1.34-1.49 2.51-2.58 3.5-1.09.99-2.36 1.77-3.84 2.35-1.47.58-3.05.86-4.73.86s-3.26-.29-4.73-.86c-1.47-.58-2.76-1.36-3.85-2.35-1.09-.99-1.95-2.16-2.58-3.5-.62-1.34-.93-2.77-.93-4.3s.31-3.09.93-4.47c.62-1.38 1.48-2.58 2.56-3.59 1.08-1.02 2.36-1.82 3.84-2.41 1.47-.58 3.06-.88 4.76-.88Zm0 20.52c1.09 0 2.08-.21 2.97-.64.89-.42 1.64-1.03 2.26-1.81.62-.78 1.1-1.74 1.43-2.86.33-1.12.5-2.38.5-3.78 0-1.47-.17-2.8-.5-3.98-.33-1.18-.81-2.19-1.43-3.03a6.282 6.282 0 0 0-2.26-1.92c-.89-.44-1.88-.67-2.97-.67s-2.11.22-2.99.67c-.88.44-1.63 1.09-2.25 1.92-.62.84-1.1 1.85-1.43 3.03-.33 1.18-.5 2.5-.5 3.98 0 1.4.17 2.66.5 3.78.33 1.12.81 2.08 1.43 2.86a6.35 6.35 0 0 0 2.25 1.81c.88.42 1.87.64 2.99.64ZM319.27 13.3c0 1.6-.17 2.98-.52 4.12-.35 1.14-.89 2.08-1.63 2.82-.74.74-1.68 1.27-2.84 1.61-1.16.34-2.55.51-4.18.51-3.04 0-5.26-.64-6.67-1.91-1.41-1.27-2.11-3.31-2.11-6.1V6.6c0-.74 0-1.35-.03-1.85-.02-.5-.05-.92-.09-1.26-.04-.34-.09-.62-.16-.83s-.15-.4-.24-.55c-.17-.26-.42-.44-.74-.54s-.81-.14-1.47-.14V.28h10.16v1.14c-.79 0-1.38.04-1.76.13s-.67.25-.88.5c-.13.15-.24.34-.33.55s-.15.5-.2.85c-.05.35-.08.78-.1 1.29-.02.51-.03 1.13-.03 1.87v7.42c0 2.15.46 3.74 1.37 4.77.92 1.03 2.33 1.54 4.23 1.54 3.89 0 5.83-2.16 5.83-6.48V7.3c0-.79-.01-1.47-.04-2.04-.03-.57-.08-1.05-.14-1.44s-.15-.73-.25-.99-.23-.48-.38-.65c-.26-.26-.6-.46-1.02-.58-.42-.12-.99-.18-1.73-.18V.28h9.17v1.14c-.7 0-1.24.05-1.61.16-.38.1-.67.29-.88.55-.15.17-.27.39-.37.67-.09.27-.17.61-.23 1.02-.06.41-.1.89-.13 1.46s-.04 1.25-.04 2.04v6ZM326.26 14.86h1.1c.26 1.79.98 3.2 2.15 4.23 1.17 1.03 2.61 1.54 4.33 1.54.7 0 1.34-.08 1.92-.25.58-.17 1.08-.41 1.5-.72.41-.31.74-.68.96-1.1.23-.42.34-.9.34-1.43 0-.45-.07-.84-.21-1.17-.14-.33-.41-.65-.81-.96-.4-.31-.94-.63-1.63-.95-.69-.32-1.58-.69-2.67-1.1-2.21-.85-3.84-1.84-4.9-2.96-1.06-1.12-1.59-2.45-1.59-3.98 0-.89.17-1.7.51-2.43s.82-1.37 1.43-1.9c.61-.53 1.35-.94 2.21-1.23.86-.29 1.81-.44 2.85-.44.96 0 1.87.15 2.72.45.85.3 1.69.75 2.52 1.36L339.5.4h.68l.31 6.11h-1.1c-.45-1.55-1.16-2.73-2.12-3.55a5 5 0 0 0-3.34-1.23c-1.17 0-2.12.29-2.84.86-.73.58-1.09 1.32-1.09 2.22 0 .4.07.75.2 1.06.13.31.38.61.74.89s.85.57 1.47.86 1.42.62 2.41.98c1.32.51 2.45 1.02 3.38 1.54.93.52 1.7 1.08 2.29 1.67.59.59 1.03 1.22 1.32 1.88.28.66.42 1.39.42 2.18 0 .96-.21 1.84-.62 2.63-.42.79-1 1.47-1.74 2.04-.75.57-1.63 1.01-2.66 1.33-1.03.32-2.17.48-3.41.48-1.13 0-2.15-.16-3.06-.47-.91-.31-1.84-.82-2.8-1.51l-.57 1.7h-.68l-.42-7.22ZM353.6 10.02c1.21 0 2.18-.04 2.92-.11s1.31-.23 1.71-.47c.41-.24.69-.58.86-1.03.17-.45.3-1.07.4-1.84h1.05v8.29h-1.05c-.11-.75-.26-1.36-.45-1.81-.19-.45-.49-.8-.91-1.03-.42-.24-.98-.39-1.68-.45s-1.66-.1-2.84-.1v5.83c0 .6.08 1.11.24 1.53.16.42.43.75.81 1s.88.43 1.5.54c.62.1 1.39.16 2.29.16 1.08 0 1.99-.08 2.73-.23.75-.15 1.36-.41 1.85-.79.49-.38.89-.88 1.19-1.51.3-.63.56-1.43.76-2.39h1.13l-.45 6.48h-19.19v-1.13c.62-.02 1.13-.08 1.53-.17.4-.09.7-.25.91-.48.21-.23.35-.55.42-.96.08-.41.11-.95.11-1.61V4.64c0-.66-.03-1.19-.1-1.6-.07-.41-.19-.73-.38-.96-.19-.24-.46-.4-.81-.48-.35-.09-.81-.15-1.37-.18V.28h17.89l.2 5.55h-1.22c-.11-.79-.29-1.45-.54-1.97-.25-.52-.59-.93-1.02-1.25-.43-.31-1-.53-1.68-.65s-1.53-.18-2.53-.18h-3.2c-.49 0-.79.06-.91.18s-.17.41-.17.86v7.19ZM111.22 43.52h1.1c.26 1.79.98 3.2 2.15 4.23 1.17 1.03 2.61 1.54 4.33 1.54.7 0 1.34-.08 1.92-.25.58-.17 1.08-.41 1.5-.72.41-.31.74-.68.96-1.1.23-.42.34-.9.34-1.43 0-.45-.07-.84-.21-1.17-.14-.33-.41-.65-.81-.96-.4-.31-.94-.63-1.63-.95-.69-.32-1.58-.69-2.67-1.1-2.21-.85-3.84-1.84-4.9-2.96-1.06-1.12-1.59-2.45-1.59-3.98 0-.89.17-1.7.51-2.43s.82-1.37 1.43-1.9c.61-.53 1.35-.94 2.21-1.23.86-.29 1.81-.44 2.85-.44.96 0 1.87.15 2.72.45.85.3 1.69.75 2.52 1.36l.51-1.42h.68l.31 6.11h-1.1c-.45-1.55-1.16-2.73-2.12-3.55a5 5 0 0 0-3.34-1.23c-1.17 0-2.12.29-2.84.86-.73.58-1.09 1.32-1.09 2.22 0 .4.07.75.2 1.06.13.31.38.61.74.89s.85.57 1.47.86 1.42.62 2.41.98c1.32.51 2.45 1.02 3.38 1.54.93.52 1.7 1.08 2.29 1.67.59.59 1.03 1.22 1.32 1.88.28.66.42 1.39.42 2.18 0 .96-.21 1.84-.62 2.63-.42.79-1 1.47-1.74 2.04-.75.57-1.63 1.01-2.66 1.33-1.03.32-2.17.48-3.41.48-1.13 0-2.15-.16-3.06-.47-.91-.31-1.84-.82-2.8-1.51l-.57 1.7h-.68l-.42-7.22ZM150.45 28.95h1.39l-.57 7.16h-1.13c-.4-1.74-1.17-3.1-2.31-4.1-1.14-1-2.52-1.5-4.15-1.5-1.11 0-2.1.22-2.97.67-.87.44-1.6 1.08-2.19 1.9-.59.82-1.05 1.82-1.36 3-.31 1.18-.47 2.51-.47 3.98 0 2.93.6 5.18 1.8 6.75 1.2 1.58 2.97 2.36 5.31 2.36 1.89 0 3.45-.51 4.68-1.53 1.24-1.02 2.12-2.54 2.65-4.56h1.25v7.67h-1.33l-.4-2.24c-2.08 1.68-4.6 2.52-7.56 2.52-1.72 0-3.27-.25-4.67-.76s-2.59-1.23-3.57-2.17c-.98-.93-1.74-2.07-2.28-3.41-.54-1.34-.81-2.83-.81-4.47s.28-3.28.85-4.7c.57-1.42 1.36-2.63 2.39-3.65s2.25-1.81 3.68-2.36c1.42-.56 3.01-.84 4.74-.84 1.15 0 2.23.16 3.23.48 1 .32 2.08.84 3.26 1.56l.54-1.75ZM178.5 46.18c0 .72.03 1.3.1 1.74.07.44.21.78.42 1.02.22.24.52.4.91.5.39.09.9.15 1.54.17v1.13h-10.39v-1.13c.7-.02 1.26-.08 1.68-.17.42-.09.75-.25.99-.48.24-.23.39-.55.47-.96.08-.41.11-.95.11-1.61v-5.92h-10.5v5.72c0 .72.04 1.3.11 1.74.08.44.23.78.45 1.02.23.24.55.4.98.5s.99.15 1.68.17v1.13h-10.36v-1.13c.64-.02 1.16-.08 1.54-.17s.68-.25.89-.48c.21-.23.35-.55.42-.96.08-.41.11-.95.11-1.61V33.32c0-.66-.03-1.19-.1-1.6-.07-.41-.19-.73-.38-.96-.19-.24-.46-.4-.81-.48-.35-.09-.81-.15-1.37-.18v-1.13h9.77v1.13c-.64.02-1.16.08-1.54.17s-.68.26-.89.51c-.21.25-.34.59-.41 1.02-.07.43-.1 1.01-.1 1.73v5.21h10.5v-5.41c0-.66-.04-1.19-.11-1.6-.08-.41-.22-.73-.42-.96-.21-.24-.51-.4-.89-.48-.39-.09-.9-.15-1.54-.18v-1.13h9.79v1.13c-.57.02-1.02.08-1.37.17-.35.09-.62.26-.81.51-.19.25-.32.59-.38 1.02-.07.43-.1 1.01-.1 1.73v12.68ZM197.47 28.66c1.7 0 3.28.29 4.76.88 1.47.58 2.75 1.39 3.84 2.41 1.08 1.02 1.94 2.22 2.56 3.59s.93 2.87.93 4.47-.32 2.96-.95 4.3c-.63 1.34-1.49 2.51-2.58 3.5-1.09.99-2.36 1.77-3.84 2.35-1.47.58-3.05.86-4.73.86s-3.26-.29-4.73-.86c-1.47-.58-2.76-1.36-3.85-2.35-1.09-.99-1.95-2.16-2.58-3.5-.62-1.34-.93-2.77-.93-4.3s.31-3.09.93-4.47c.62-1.38 1.48-2.58 2.56-3.59 1.08-1.02 2.36-1.82 3.84-2.41 1.47-.58 3.06-.88 4.76-.88Zm0 20.52c1.09 0 2.08-.21 2.97-.64.89-.42 1.64-1.03 2.26-1.81.62-.78 1.1-1.74 1.43-2.86.33-1.12.5-2.38.5-3.78 0-1.47-.17-2.8-.5-3.98-.33-1.18-.81-2.19-1.43-3.03a6.282 6.282 0 0 0-2.26-1.92c-.89-.44-1.88-.67-2.97-.67s-2.11.22-2.99.67c-.88.44-1.63 1.09-2.25 1.92-.62.84-1.1 1.85-1.43 3.03-.33 1.18-.5 2.5-.5 3.98 0 1.4.17 2.66.5 3.78.33 1.12.81 2.08 1.43 2.86a6.35 6.35 0 0 0 2.25 1.81c.88.42 1.87.64 2.99.64ZM226.14 28.66c1.7 0 3.28.29 4.76.88 1.47.58 2.75 1.39 3.84 2.41 1.08 1.02 1.94 2.22 2.56 3.59s.93 2.87.93 4.47-.32 2.96-.95 4.3c-.63 1.34-1.49 2.51-2.58 3.5-1.09.99-2.36 1.77-3.84 2.35-1.47.58-3.05.86-4.73.86s-3.26-.29-4.73-.86c-1.47-.58-2.76-1.36-3.85-2.35-1.09-.99-1.95-2.16-2.58-3.5-.62-1.34-.93-2.77-.93-4.3s.31-3.09.93-4.47 1.48-2.58 2.56-3.59c1.08-1.02 2.36-1.82 3.84-2.41 1.47-.58 3.06-.88 4.76-.88Zm0 20.52c1.09 0 2.08-.21 2.97-.64.89-.42 1.64-1.03 2.26-1.81.62-.78 1.1-1.74 1.43-2.86.33-1.12.5-2.38.5-3.78 0-1.47-.17-2.8-.5-3.98-.33-1.18-.81-2.19-1.43-3.03a6.282 6.282 0 0 0-2.26-1.92c-.89-.44-1.88-.67-2.97-.67s-2.11.22-2.99.67c-.88.44-1.63 1.09-2.25 1.92-.62.84-1.1 1.85-1.43 3.03-.33 1.18-.5 2.5-.5 3.98 0 1.4.17 2.66.5 3.78.33 1.12.81 2.08 1.43 2.86a6.35 6.35 0 0 0 2.25 1.81c.88.42 1.87.64 2.99.64ZM261.61 50.74h-19.5v-1.13c.62-.02 1.13-.08 1.53-.17.4-.09.7-.25.91-.48.21-.23.35-.55.42-.96.08-.41.11-.95.11-1.61V33.31c0-.66-.03-1.19-.1-1.6-.07-.41-.19-.73-.38-.96-.19-.24-.46-.4-.81-.48-.35-.09-.81-.15-1.37-.18v-1.13h9.77v1.13c-.64.02-1.16.08-1.54.17s-.68.26-.89.51c-.21.25-.34.59-.41 1.02-.07.43-.1 1.01-.1 1.73v11.86c0 .79.08 1.44.24 1.94.16.5.44.89.83 1.16s.92.46 1.59.57c.66.1 1.48.16 2.46.16 1.09 0 2.01-.07 2.75-.2.74-.13 1.35-.38 1.85-.75s.9-.86 1.2-1.49c.3-.62.56-1.43.76-2.43h1.13l-.45 6.43ZM265.99 43.52h1.1c.26 1.79.98 3.2 2.15 4.23 1.17 1.03 2.61 1.54 4.33 1.54.7 0 1.34-.08 1.92-.25.58-.17 1.08-.41 1.5-.72.41-.31.74-.68.96-1.1.23-.42.34-.9.34-1.43 0-.45-.07-.84-.21-1.17-.14-.33-.41-.65-.81-.96-.4-.31-.94-.63-1.63-.95-.69-.32-1.58-.69-2.67-1.1-2.21-.85-3.84-1.84-4.9-2.96-1.06-1.12-1.59-2.45-1.59-3.98 0-.89.17-1.7.51-2.43s.82-1.37 1.43-1.9c.61-.53 1.35-.94 2.21-1.23.86-.29 1.81-.44 2.85-.44.96 0 1.87.15 2.72.45.85.3 1.69.75 2.52 1.36l.51-1.42h.68l.31 6.11h-1.1c-.45-1.55-1.16-2.73-2.12-3.55a5 5 0 0 0-3.34-1.23c-1.17 0-2.12.29-2.84.86-.73.58-1.09 1.32-1.09 2.22 0 .4.07.75.2 1.06.13.31.38.61.74.89s.85.57 1.47.86 1.42.62 2.41.98c1.32.51 2.45 1.02 3.38 1.54.93.52 1.7 1.08 2.29 1.67.59.59 1.03 1.22 1.32 1.88.28.66.42 1.39.42 2.18 0 .96-.21 1.84-.62 2.63-.42.79-1 1.47-1.74 2.04-.75.57-1.63 1.01-2.66 1.33-1.03.32-2.17.48-3.41.48-1.13 0-2.15-.16-3.06-.47-.91-.31-1.84-.82-2.8-1.51l-.57 1.7h-.68l-.42-7.22Z" class="cls-3"/><path d="M91.25.31v73.46" style="stroke-width:.99px;fill:none;stroke:#aa9658;stroke-miterlimit:10"/><path d="M49.11 70.8c-3.82 2.72-8.27 5.23-13.48 7.36-5.2-2.11-9.63-4.61-13.41-7.32C3.13 57.14.75 37.99.75 35.13V1.04h70.49v33.75c0 2.86-2.77 22.2-22.13 36.02Z" class="cls-3"/><path d="M22.58 66.1s.9-10.36-2.7-11.92c-3.6-1.56-4.17-1.61-3.47-3.08.7-1.47 1.47-1.5 2.61-1.4 1.14.1 4.23.94 3.17-2.31-1.06-3.25-3.78-10.58-1.15-12.17 2.63-1.59 5.07-3.2 7.24.53 2.17 3.73 3.67 8.46 6.12 5.61 2.45-2.85 5.76-12.03 6.92-15.78.66-2.15 7.48-.02 7.81.48 0 0 1.74-.14-.22 4.77-1.96 4.91-3.51 9.56-1.48 10.41 2.04.85 7.6.75 7.47 3.33-.13 2.58-.79 3.57-2.4 3.43-1.62-.14-6.59-.19-6.71 4.5-.12 4.68.59 14.23 0 15.52l-.32.36-22.89-2.27Z" class="cls-4"/><path d="M16.79 49.37s3.01-3.56-2.48-4.4c0 0-2.38 4.49 2.48 4.4ZM14.35 55.18s-.66-2.4 2.42-1.47c0 0-.08 2.65-2.42 1.47Z" class="cls-4"/><path d="M13.6 48.54s-1.1-3.21-2.59-.78c-1.26 2.05 1.95 1.09 2.59.78ZM15.93 51.03s-2.48 2.13-3.35-.8c0 0 1.71-2.66 3.35.8ZM15.94 37.37s-.8-7.58-7.47-3.54c-.06.04-.13.08-.19.12 0 0 .25 8.9 7.66 3.42ZM21.2 33.84s4.83-9.22-6.04-8.63c0 0-4.46 9.05 6.04 8.63ZM8.42 30.59s.22 2.78-2.53 1.52c0 0-.31-2.28 2.53-1.52ZM16.05 34.93s2.12-1.55 3.28 1c0 0-1.93 2.8-3.28-1Z" class="cls-4"/><path d="M23.84 32.8s4.48.74 2.45-4.12c0 0-4.81-.37-2.45 4.12ZM22.79 27.81s6.58-.6 2.56-6.05c0 0-6.01 1.06-2.56 6.05ZM17.27 24.42s1.91-2.08-1.58-2.99c0 0-1.28 3.05 1.58 2.99ZM13.56 22.47s1.21-.46.38-1.4c0 0-1.15.31-.38 1.4ZM30.82 33.5s1.95-1.36 2.58.89c0 0-1.57 2.21-2.58-.89ZM33.62 32.32s2.96-2.4 4.13 1.22c0 0-2.25 3.58-4.13-1.22ZM35.38 26.14s4.17-2.24 3.86 3.09c0 0-4.47 2.11-3.86-3.09ZM34.28 23.55s1.8-1.37 2.48.83c0 0-2.15 1.9-2.48-.83ZM37.41 20.91s4.45-1.35 3.47 3.51c0 0-4.39 1.81-3.47-3.51ZM10.6 27.21s4.27.17 2.3 4.64c0 0-5.58.28-2.3-4.64ZM35.66 21.78s3.18-9.67-7.25-7.56c0 0-3.37 9.5 7.25 7.56ZM36.77 5.96s8.17 1.11 2.83 8c0 0-8.29-.87-2.83-8ZM43.49 17.26s2.92-3.62-2.32-4.43c0 0-2.32 4.44 2.32 4.43Z" class="cls-4"/><path d="M45.85 18.28s4.77-.3 1.57-4.61c0 0-5.01 1.3-1.57 4.61ZM48.74 14.34s2.29-1.74 3.33 1.05c0 0-2.27 2.61-3.33-1.05ZM44.35 10.95s.41-2.92-2.06-.99c0 0-.48 2.61 2.06.99ZM45.31 23.43s3.31-4.61-3.2-5.48c0 0-3.98 5.88 3.2 5.48ZM38.07 17.45s2.3-1.79 3.12 1.09c0 0-2.33 2.71-3.12-1.09ZM36.54 15.12s1.74-1.28 2.63.89c0 0-2.18 2.16-2.63-.89Z" class="cls-4"/><path d="M46.69 23.4s.64-9.79 9.15-4.92c0 0 .49 10.24-9.15 4.92ZM56.79 42.18s5.94-1.42 1.81-6.17c0 0-6.98 1.08-1.81 6.17ZM55.91 45.31s.83-4.31 5.02-.89c0 0-1.31 5.14-5.02.89Z" class="cls-4"/><path d="M55.77 46.93s7.98.95 2.88 7.95c0 0-8.95-.88-2.88-7.95ZM60.82 48.14s-.25-2.37 2.32-1.48c0 0 .2 2.42-2.32 1.48ZM59.21 41.93s.66-2.29 2.6-.59c0 0-.16 3-2.6.59ZM62.38 40.62s-.52-.45.5-1.08c0 0 .46 1.11-.5 1.08ZM32.57 31.69s.37-1.14-.69-1.28c0 0-.52 1.13.69 1.28ZM27.61 29.4s-.78-.87.53-1.23c0 0 .62.85-.53 1.23ZM56.15 17.4s-1.05-.73.17-1.37c0 0 .63.75-.17 1.37ZM34.89 14.12s-.68-.75.73-1c0 0 .56.9-.73 1ZM14.13 53.02s.81-.73-.67-.91c0 0-.83.94.67.91ZM17.16 45.09s.99-.39-.67-.91c0 0-.28.77.67.91Z" class="cls-4"/><path d="M49.11 70.8c-3.82 2.72-8.27 5.23-13.48 7.36-5.2-2.11-9.63-4.61-13.41-7.32C3.13 57.14.75 37.99.75 35.13V1.04h70.49v33.75c0 2.86-2.77 22.2-22.13 36.02Z" style="fill:none;stroke:#aa9658;stroke-miterlimit:10;stroke-width:1.5px"/><path d="M120.1 64.22v9.59h-2.26l-4.17-6.71.18 2.7v4.01h-1.96v-9.59h2.25l4.18 6.71-.18-2.7v-4.01h1.96ZM128.34 71.56h-3.88l-.82 2.26h-2.07l3.59-9.59h2.48l3.59 9.59h-2.08l-.81-2.26Zm-.69-1.86-1.26-3.48-1.26 3.48h2.52ZM132.77 64.22h1.96v9.59h-1.96v-9.59ZM139.95 70.36h-1.08v3.45h-1.96v-9.59h4.12c2.06 0 3.27 1.22 3.27 3.12 0 1.56-.81 2.52-2.15 2.86l2.69 3.6h-2.41l-2.48-3.45Zm-1.08-1.71h1.95c1.03 0 1.51-.49 1.51-1.27s-.49-1.29-1.51-1.29h-1.95v2.56ZM155.56 69.02c0 2.82-2.18 4.96-5 4.96s-4.99-2.14-4.99-4.96 2.17-4.96 4.99-4.96 5 2.14 5 4.96Zm-8.02 0c0 1.79 1.29 3.1 3.01 3.1s3.01-1.3 3.01-3.1-1.29-3.1-3.01-3.1-3.01 1.3-3.01 3.1ZM164.8 71.05c0 1.75-1.26 2.77-3.23 2.77h-4.23v-9.59h4.21c1.77 0 2.93.85 2.93 2.49 0 .96-.41 1.53-1.19 1.93 1.03.34 1.52 1.27 1.52 2.4Zm-3.52-4.96h-1.99v1.93h2.04c.81 0 1.16-.33 1.16-.97 0-.7-.4-.96-1.22-.96Zm1.53 4.8c0-.7-.29-1.07-1.3-1.07h-2.22v2.14h2.23c1 0 1.29-.42 1.29-1.07ZM166.47 64.22h1.96v9.59h-1.96v-9.59ZM171.87 76.17h-1.26l1.04-2.26c-.44-.16-.73-.53-.73-1.07 0-.71.52-1.19 1.21-1.19.51 0 1.23.26 1.23 1.27 0 .3-.05.78-1.49 3.25ZM185.33 73.82l-3.6-4.48v4.48h-1.96v-9.59h1.96v4.25l3.41-4.25h2.42l-3.77 4.65 3.99 4.95h-2.45ZM191.28 66.09v1.93h4.11v1.86h-4.11v2.07h4.48v1.86h-6.44v-9.59h6.44v1.86h-4.48ZM205.58 64.22v9.59h-2.26l-4.17-6.71.18 2.7v4.01h-1.96v-9.59h2.25l4.18 6.71-.18-2.7v-4.01h1.96ZM212.4 70.65v3.17h-1.97v-3.15l-3.38-6.44h2.21l2.17 4.23 2.17-4.23h2.21l-3.38 6.43ZM222.19 71.56h-3.88l-.82 2.26h-2.07l3.59-9.59h2.48l3.59 9.59H223l-.81-2.26Zm-.68-1.86-1.26-3.48-1.26 3.48h2.52Z" class="cls-5"/></g></svg>